HIERARCHY
ROOT Hips
{
	OFFSET -0.001795 -0.223333 0.028219
	CHANNELS 6 Xposition Yposition Zposition Zrotation Yrotation Xrotation 
	JOINT LeftUpLeg
	{
		OFFSET 0.069520 -0.091406 -0.006815
		CHANNELS 3 Zrotation Yrotation Xrotation
		JOINT LeftLeg
		{
			OFFSET 0.034277 -0.375199 -0.004496
			CHANNELS 3 Zrotation Yrotation Xrotation
			JOINT LeftFoot
			{
				OFFSET -0.013596 -0.397961 -0.043693
				CHANNELS 3 Zrotation Yrotation Xrotation
				JOINT LeftToe
				{
					OFFSET 0.026358 -0.055791 0.119288
					CHANNELS 3 Zrotation Yrotation Xrotation
					End Site
					{
						OFFSET 0.000000 0.000000 0.000000
					}
				}
			}
		}
	}
	JOINT RightUpLeg
	{
		OFFSET -0.067670 -0.090522 -0.004320
		CHANNELS 3 Zrotation Yrotation Xrotation
		JOINT RightLeg
		{
			OFFSET -0.038290 -0.382569 -0.008850
			CHANNELS 3 Zrotation Yrotation Xrotation
			JOINT RightFoot
			{
				OFFSET 0.015774 -0.398415 -0.042312
				CHANNELS 3 Zrotation Yrotation Xrotation
				JOINT RightToe
				{
					OFFSET -0.025372 -0.048144 0.123348
					CHANNELS 3 Zrotation Yrotation Xrotation
					End Site
					{
						OFFSET 0.000000 0.000000 0.000000
					}
				}
			}
		}
	}
	JOINT Spine
	{
		OFFSET -0.002533 0.108963 -0.026696
		CHANNELS 3 Zrotation Yrotation Xrotation
		JOINT Spine1
		{
			OFFSET 0.005487 0.135180 0.001092
			CHANNELS 3 Zrotation Yrotation Xrotation
			JOINT Spine2
			{
				OFFSET 0.001457 0.052922 0.025425
				CHANNELS 3 Zrotation Yrotation Xrotation
				JOINT Neck
				{
					OFFSET -0.002778 0.213870 -0.042857
					CHANNELS 3 Zrotation Yrotation Xrotation
					JOINT Head
					{
						OFFSET 0.005152 0.064970 0.051349
						CHANNELS 3 Zrotation Yrotation Xrotation
						End Site
						{
							OFFSET 0.000000 0.000000 0.000000
						}
					}
				}
				JOINT LeftShoulder
				{
					OFFSET 0.078845 0.121749 -0.034090
					CHANNELS 3 Zrotation Yrotation Xrotation
					JOINT LeftArm
					{
						OFFSET 0.090977 0.030469 -0.008868
						CHANNELS 3 Zrotation Yrotation Xrotation
						JOINT LeftForeArm
						{
							OFFSET 0.259612 -0.012772 -0.027456
							CHANNELS 3 Zrotation Yrotation Xrotation
							JOINT LeftHand
							{
								OFFSET 0.249234 0.008986 -0.001171
								CHANNELS 3 Zrotation Yrotation Xrotation
								End Site
								{
									OFFSET 0.000000 0.000000 0.000000
								}
							}
						}
					}
				}
				JOINT RightShoulder
				{
					OFFSET -0.081759 0.118833 -0.038615
					CHANNELS 3 Zrotation Yrotation Xrotation
					JOINT RightArm
					{
						OFFSET -0.096012 0.032551 -0.009143
						CHANNELS 3 Zrotation Yrotation Xrotation
						JOINT RightForeArm
						{
							OFFSET -0.253742 -0.013329 -0.021401
							CHANNELS 3 Zrotation Yrotation Xrotation
							JOINT RightHand
							{
								OFFSET -0.255298 0.007772 -0.005559
								CHANNELS 3 Zrotation Yrotation Xrotation
								End Site
								{
									OFFSET 0.000000 0.000000 0.000000
								}
							}
						}
					}
				}
			}
		}
	}
}
MOTION
Frames: 17
Frame Time: 0.050000
-0.000061 0.847936 0.030355 -1.670085 -74.952277 20.181739 0.051672 18.737256 -53.937864 8.023855 8.814139 53.592878 -0.548547 -2.121061 -7.385615 0.000000 0.000000 0.000000 -39.396253 11.784849 -48.102556 41.444304 1.487270 23.950677 -48.290419 -57.181733 48.916415 0.000000 0.000000 0.000000 9.449578 9.820557 47.707901 6.682459 -1.251807 -25.102377 -3.973732 -10.499726 22.855101 0.345466 -3.874210 -32.103495 0.000000 0.000000 0.000000 -26.664536 -15.038139 23.000972 -29.485155 -37.877608 1.167430 3.013531 -72.693894 5.408353 0.000000 0.000000 0.000000 -7.958256 30.273609 8.221938 11.845164 43.480543 -4.734424 -67.265422 21.227970 -25.202488 0.000000 0.000000 0.000000 
-0.000979 0.850058 0.028937 -0.952952 -75.159825 19.600080 0.495553 18.695200 -53.289186 7.387701 9.026339 52.499919 -0.723751 -2.345775 -7.100736 0.000000 0.000000 0.000000 -38.867125 11.752535 -47.693418 40.405510 1.568427 24.101959 -47.886676 -56.885156 48.526640 0.000000 0.000000 0.000000 9.967499 9.676760 47.797316 6.782093 -1.269576 -24.956204 -3.886378 -10.034649 22.880348 1.101779 -4.226873 -31.284190 0.000000 0.000000 0.000000 -26.559592 -15.125515 22.854343 -30.820202 -38.122766 1.511100 2.463073 -72.499572 5.992012 0.000000 0.000000 0.000000 -8.675287 30.132234 8.314202 11.349642 43.060776 -4.810654 -66.912768 19.513556 -23.853964 0.000000 0.000000 0.000000 
-0.001744 0.854588 0.027734 0.432561 -75.303460 18.447909 1.086855 18.250504 -51.940196 5.950715 9.595108 50.468393 -0.415323 -1.592762 -6.963212 0.000000 0.000000 0.000000 -38.162029 11.658925 -46.927006 38.585879 1.743391 23.753973 -46.929395 -56.031884 48.073620 0.000000 0.000000 0.000000 10.491386 9.520901 47.874203 6.445944 -1.241310 -24.943809 -3.473145 -9.601845 23.027502 1.550226 -4.381869 -31.193629 0.000000 0.000000 0.000000 -26.243240 -15.178462 22.555074 -33.082278 -38.674862 2.242696 1.218132 -72.978911 7.362344 0.000000 0.000000 0.000000 -9.545296 29.947836 8.435876 9.933717 43.317511 -5.401535 -64.409195 16.138874 -20.367339 0.000000 0.000000 0.000000 
-0.002125 0.859770 0.026594 1.729409 -75.358338 17.456722 1.486754 17.607279 -50.536183 4.747926 9.752842 47.966777 -0.153333 -0.901085 -6.714916 0.000000 0.000000 0.000000 -37.137226 11.525303 -45.983779 35.885611 1.936703 23.084710 -45.114207 -55.086558 46.204362 0.000000 0.000000 0.000000 11.256984 9.172642 47.772874 6.065633 -1.241134 -24.610212 -3.065393 -8.748242 22.957012 2.151181 -4.534490 -31.188911 0.000000 0.000000 0.000000 -25.574539 -15.228113 22.011048 -35.954129 -38.676290 3.039326 -1.904310 -73.341085 10.267248 0.000000 0.000000 0.000000 -11.642156 29.332587 8.675767 8.775768 44.284703 -6.263188 -61.366900 13.055305 -17.127357 0.000000 0.000000 0.000000 
-0.002079 0.863080 0.025638 2.466305 -75.704384 16.879796 1.831490 17.182242 -49.319511 4.023775 9.894253 46.285355 -0.023655 -0.504885 -7.037288 0.000000 0.000000 0.000000 -36.557619 11.488103 -45.250288 34.381857 2.162690 22.203112 -44.398431 -54.308626 45.834744 0.000000 0.000000 0.000000 11.648544 9.092698 47.785512 5.929641 -1.218348 -24.649078 -2.636498 -7.617667 23.101048 2.829460 -4.770111 -30.866821 0.000000 0.000000 0.000000 -25.557227 -15.056685 21.627113 -37.801218 -38.317650 3.342925 -5.775665 -74.234668 13.726882 0.000000 0.000000 0.000000 -12.325942 29.316236 8.704554 6.825450 44.862266 -7.054182 -57.885308 9.839274 -13.669762 0.000000 0.000000 0.000000 
-0.001855 0.864778 0.024746 3.941398 -75.293912 15.879253 1.737009 16.705152 -48.923551 3.461440 9.671058 44.839402 0.365986 0.305457 -6.915811 0.000000 0.000000 0.000000 -36.199847 11.333771 -44.609884 32.833368 2.196815 21.398709 -43.791219 -53.960214 45.154010 0.000000 0.000000 0.000000 12.314843 8.560907 47.387496 5.645976 -1.228028 -24.359277 -2.046460 -7.179388 22.996469 2.638314 -4.630932 -30.542092 0.000000 0.000000 0.000000 -25.001765 -14.932846 21.234115 -39.992712 -37.248097 3.543211 -11.393855 -75.195459 18.887078 0.000000 0.000000 0.000000 -14.190477 29.311832 8.944160 5.218721 45.499783 -8.041099 -55.608027 7.734034 -11.772898 0.000000 0.000000 0.000000 
-0.001618 0.865311 0.023903 4.641980 -75.293614 15.264006 1.842755 16.605341 -48.635312 3.530391 9.580059 44.591883 0.322634 0.252145 -6.782435 0.000000 0.000000 0.000000 -36.436700 11.336639 -44.555631 32.522633 2.181592 21.189351 -42.478658 -53.363047 44.174728 0.000000 0.000000 0.000000 12.568005 8.557830 47.613856 5.982667 -1.265805 -24.314804 -1.828153 -6.587439 23.132162 2.789067 -4.632244 -30.282257 0.000000 0.000000 0.000000 -23.993574 -14.752558 20.348586 -42.558141 -35.492863 3.659974 -16.166157 -75.069203 23.060121 0.000000 0.000000 0.000000 -15.067370 29.775399 9.018245 3.566746 45.392869 -8.577527 -53.974929 6.803295 -10.589768 0.000000 0.000000 0.000000 
-0.001688 0.866876 0.022835 5.587309 -75.109182 14.539175 1.802486 16.220499 -48.193563 3.338790 9.377628 43.625644 0.388978 0.449053 -6.739199 0.000000 0.000000 0.000000 -36.184922 11.267747 -44.278505 31.486218 2.176865 20.900657 -41.781529 -52.940010 43.654304 0.000000 0.000000 0.000000 12.793210 8.465905 47.654979 6.001964 -1.307743 -24.031595 -1.257363 -6.253249 22.981748 2.207312 -4.286178 -30.318302 0.000000 0.000000 0.000000 -22.737141 -14.358581 19.311370 -45.390286 -33.523240 3.769120 -21.933884 -74.906343 28.146123 0.000000 0.000000 0.000000 -16.088026 29.532273 9.109493 3.036047 45.719251 -8.956806 -53.622890 7.520979 -10.796955 0.000000 0.000000 0.000000 
-0.002123 0.869906 0.021598 5.909698 -74.727997 14.284759 2.055897 15.970348 -47.665993 2.845353 9.381583 42.793920 0.543071 0.751386 -6.016084 0.000000 0.000000 0.000000 -35.615100 11.178353 -44.202206 30.377311 2.106044 21.011162 -40.579395 -52.298239 42.984499 0.000000 0.000000 0.000000 12.817478 8.377011 47.612063 6.053817 -1.292412 -24.127275 -1.013209 -6.166270 23.556100 2.162525 -4.225094 -30.796547 0.000000 0.000000 0.000000 -21.150396 -14.128957 18.301905 -48.206218 -31.764823 3.972021 -22.086187 -74.115733 28.351502 0.000000 0.000000 0.000000 -16.444142 29.134314 9.125333 2.755473 45.764293 -9.151791 -54.415686 8.651381 -11.654922 0.000000 0.000000 0.000000 
-0.002802 0.874362 0.019991 7.113989 -74.149825 13.324781 2.167470 15.267529 -46.820846 1.915014 9.171020 40.771547 0.941833 1.548553 -5.304548 0.000000 0.000000 0.000000 -35.583132 11.002498 -43.818128 29.324095 2.011802 20.468538 -39.454173 -51.450739 42.731320 0.000000 0.000000 0.000000 12.965535 8.243566 47.663345 5.850657 -1.274461 -24.047147 -0.874864 -6.290239 23.470301 1.974637 -4.112993 -30.683138 0.000000 0.000000 0.000000 -19.866269 -13.621784 17.234381 -50.685262 -30.374957 4.253757 -22.160705 -73.311697 28.350170 0.000000 0.000000 0.000000 -16.949339 27.864295 9.138193 3.316570 46.687155 -9.380316 -55.919630 11.387794 -13.599556 0.000000 0.000000 0.000000 
-0.003505 0.878969 0.018236 7.587842 -73.601227 13.262385 2.302007 14.813190 -46.172128 1.059114 8.938642 38.892603 1.283822 2.168627 -4.393910 0.000000 0.000000 0.000000 -35.308811 10.893627 -43.545583 28.299245 1.961846 20.109736 -38.672793 -50.756656 42.841344 0.000000 0.000000 0.000000 12.812744 8.033049 47.200666 5.768640 -1.268657 -23.869699 -0.732586 -5.944160 23.854393 2.274259 -4.211138 -30.933757 0.000000 0.000000 0.000000 -18.737230 -12.984520 16.258390 -52.596303 -30.085548 4.864803 -19.249697 -72.850451 26.239727 0.000000 0.000000 0.000000 -18.093395 26.529667 9.234623 3.496569 47.492324 -9.851732 -58.033590 12.338820 -14.996365 0.000000 0.000000 0.000000 
-0.004071 0.881609 0.016536 8.354454 -72.989583 12.659212 2.471869 14.235442 -45.377740 0.205995 8.755788 37.149436 1.870375 3.167131 -3.272089 0.000000 0.000000 0.000000 -35.434816 10.760172 -43.337953 28.031908 1.876137 19.914661 -38.381397 -50.335455 43.420850 0.000000 0.000000 0.000000 12.997329 7.766725 46.977459 5.377759 -1.210374 -23.913435 -0.580915 -5.889358 24.122876 2.275552 -4.208568 -30.899297 0.000000 0.000000 0.000000 -18.026151 -12.744936 15.721493 -54.023700 -29.772473 5.246307 -16.732896 -71.569443 23.851165 0.000000 0.000000 0.000000 -19.376462 25.412415 9.359386 3.845184 48.348280 -10.284814 -59.363633 13.274950 -16.109126 0.000000 0.000000 0.000000 
-0.004664 0.883349 0.015127 8.979625 -72.592660 12.291445 2.501252 13.866806 -44.957056 -0.338405 8.643880 36.084287 1.977243 3.354118 -2.946192 0.000000 0.000000 0.000000 -35.236437 10.661899 -43.178064 27.814516 1.838515 19.859273 -37.986436 -50.254072 42.915821 0.000000 0.000000 0.000000 13.050709 7.592261 46.738691 4.882409 -1.163002 -23.749693 -0.375707 -5.830914 24.154271 2.513679 -4.283518 -30.992694 0.000000 0.000000 0.000000 -17.106781 -12.667355 15.201748 -54.977624 -30.121958 5.980848 -15.875896 -71.470950 23.308391 0.000000 0.000000 0.000000 -20.965329 24.505161 9.569244 3.386904 49.480134 -11.235704 -59.667688 12.629582 -15.883991 0.000000 0.000000 0.000000 
-0.005583 0.884420 0.014169 9.597599 -72.293565 11.832237 2.530147 13.541711 -44.556325 -0.863458 8.533972 35.024090 2.348432 3.959835 -2.292559 0.000000 0.000000 0.000000 -35.092427 10.587228 -43.043288 27.760391 1.824359 19.848629 -37.750440 -50.213014 42.587204 0.000000 0.000000 0.000000 13.206415 7.464773 46.629955 4.484535 -1.122272 -23.595410 -0.168577 -5.681121 24.273886 2.475675 -4.223477 -31.168056 0.000000 0.000000 0.000000 -16.533351 -12.517485 14.781185 -55.963687 -30.606256 6.700991 -15.211397 -70.924824 22.682691 0.000000 0.000000 0.000000 -22.181412 23.441505 9.705919 2.895457 50.724090 -12.196380 -59.426842 11.574798 -15.113421 0.000000 0.000000 0.000000 
-0.006850 0.886090 0.013650 10.371634 -71.917809 11.434435 2.433252 13.069016 -44.098213 -1.358278 8.260367 33.637844 2.524211 4.283001 -2.159913 0.000000 0.000000 0.000000 -35.012515 10.507897 -43.014857 27.471445 1.761676 19.853607 -37.149126 -50.087675 41.870874 0.000000 0.000000 0.000000 13.284565 7.219546 46.270876 4.395775 -1.114995 -23.490479 0.162838 -5.455667 24.229857 2.749961 -4.321156 -30.884974 0.000000 0.000000 0.000000 -16.279054 -12.463177 14.590308 -56.543406 -31.318531 7.362187 -14.457851 -71.612727 22.529686 0.000000 0.000000 0.000000 -23.180744 22.944456 9.807075 2.563374 51.702274 -12.919171 -59.201438 10.842181 -14.484708 0.000000 0.000000 0.000000 
-0.008492 0.887474 0.013453 11.312930 -71.648138 10.797616 2.423743 12.600788 -43.510097 -1.819085 8.105017 32.498902 2.784641 4.694620 -1.656304 0.000000 0.000000 0.000000 -35.051891 10.444070 -43.008158 27.407198 1.698845 20.079764 -36.196673 -49.837796 40.796930 0.000000 0.000000 0.000000 13.388599 7.057144 46.052795 4.248592 -1.094495 -23.407818 0.295232 -5.450023 24.341314 2.829068 -4.340356 -31.012318 0.000000 0.000000 0.000000 -15.609240 -12.120288 14.041695 -57.289288 -31.934133 8.184296 -14.290011 -71.952702 22.721878 0.000000 0.000000 0.000000 -23.801701 22.255249 9.896279 2.276560 53.029646 -13.832442 -59.716154 9.963707 -14.021356 0.000000 0.000000 0.000000 
-0.010284 0.888608 0.013645 11.882099 -71.553238 10.486073 2.356154 12.114893 -42.815562 -2.146485 7.817103 31.122682 2.786855 4.779842 -1.846389 0.000000 0.000000 0.000000 -34.915420 10.407562 -42.891156 27.109486 1.692764 20.011900 -35.589211 -49.644893 39.866335 0.000000 0.000000 0.000000 13.466118 6.942606 45.824289 4.241411 -1.086275 -23.343983 0.581359 -5.451322 24.464398 2.945962 -4.415367 -30.818860 0.000000 0.000000 0.000000 -15.431578 -12.158495 14.009315 -57.578852 -33.284910 9.158570 -10.339996 -73.179057 20.357456 0.000000 0.000000 0.000000 -24.404195 22.088617 10.002105 2.066135 53.850508 -14.503027 -60.372166 9.671486 -14.025190 0.000000 0.000000 0.000000 
